# xmcd
#
# Track frame offsets: 
#        150
#        13360
#        30385
#        46347
#        64697
#        84135
#        99947
#        113635
#        128735
#        140510
#        157935
#        176640
#        195610
#
# Disc length: 2839 seconds
#
# Revision: 9
# Processed by: cddbd v1.5.2PL0 Copyright (c) Steve Scherf et al.
# Submitted via: ExactAudioCopy v0.99pb4
#
DISCID=9c0b150d
DTITLE=BROOKS AND DUNN - Tight Rope
DYEAR=1999
DGENRE=Country
TTITLE0=Goin' Under Gettin' Over You
TTITLE1=Missing You
TTITLE2=Temptation #9
TTITLE3=Hurt Train
TTITLE4=Can't Stop My Heart
TTITLE5=Too Far This Time
TTITLE6=You'll Always Be Loved By Me
TTITLE7=I Love You More
TTITLE8=Beer Thirty
TTITLE9=Don't Look Back Now
TTITLE10=All Out Of Love
TTITLE11=The Trouble With Angels
TTITLE12=Texas And Norma Jean
EXTD=Released 9/21/1999 YEAR: 1999
EXTT0=
EXTT1=
EXTT2=
EXTT3=
EXTT4=
EXTT5=
EXTT6=
EXTT7=
EXTT8=
EXTT9=
EXTT10=
EXTT11=
EXTT12=
PLAYORDER=
